<?xml version='1.0' encoding='UTF-8' standalone='no'?>
<svg xmlns="http://www.w3.org/2000/svg" width="53.149605" version="1.2" gorn="0"  height="74.409447" viewBox="0 0 590.55115 826.77164" id="svg2">
    <desc >
        <referenceFile >GY-521 PCB.svg</referenceFile>
    </desc>
    <metadata  id="metadata39">
        <rdf:RDF xmlns:rdf="http://www.w3.org/1999/02/22-rdf-syntax-ns#">
            <cc:Work xmlns:rdf="http://www.w3.org/1999/02/22-rdf-syntax-ns#" xmlns:cc="http://creativecommons.org/ns#" rdf:about="">
                <dc:format xmlns:dc="http://purl.org/dc/elements/1.1/">image/svg+xml</dc:format>
                <dc:type xmlns:rdf="http://www.w3.org/1999/02/22-rdf-syntax-ns#" rdf:resource="http://purl.org/dc/dcmitype/StillImage" xmlns:dc="http://purl.org/dc/elements/1.1/"/>
                <dc:title xmlns:dc="http://purl.org/dc/elements/1.1/"/>
            </cc:Work>
        </rdf:RDF>
    </metadata>
    <defs  id="defs37"/>
    <desc  id="desc4">Fritzing footprint SVG</desc>
    <g  transform="matrix(2.8334566,0,0,2.0073145,-44.739206,-28.219288)">
        <g >
            <g gorn="0.4.0.0"  id="silkscreen">
                <line gorn="0.4.0.0.0"  stroke="#ffffff" style="stroke-miterlimit:4;stroke-dasharray:none" id="line7" y1="18.253496" x1="18.761696" y2="421.7424" stroke-width="7.06221581" x2="18.761696"/>
                <line gorn="0.4.0.0.1"  stroke="#ffffff" style="stroke-miterlimit:4;stroke-dasharray:none" id="line9" y1="421.7424" x1="18.761696" y2="421.7424" stroke-width="7.06221581" x2="221.2383"/>
                <line gorn="0.4.0.0.2"  stroke="#ffffff" style="stroke-miterlimit:4;stroke-dasharray:none" id="line11" y1="421.7424" x1="221.2383" y2="18.253496" stroke-width="7.06221581" x2="221.2383"/>
                <line gorn="0.4.0.0.3"  stroke="#ffffff" style="stroke-miterlimit:4;stroke-dasharray:none" id="line13" y1="18.253496" x1="221.2383" y2="18.253496" stroke-width="7.06221581" x2="18.761696"/>
                <line gorn="0.4.0.0.4"  stroke="#ffffff" id="line15" y1="35.398411" x1="18.805645" y2="18.239037" stroke-width="2.0356493" x2="30.638803"/>
                <!-- 120 -->
            </g>
        </g>
    </g>
    <g  transform="translate(20.357815,390.50046)">
        <g >
            <g gorn="0.5.0.0"  id="copper1">
                <g gorn="0.5.0.0.0"  id="copper0">
                    <g  transform="translate(-22.222223,-399.99997)">
                        <g >
                            <circle fill="none" cx="70" gorn="0.5.0.0.0.0.0.0"  cy="70" stroke="#ffbf00" id="connector0pin" r="29" stroke-width="20" d="M 99,70 C 99,86.016258 86.016258,99 70,99 53.983742,99 41,86.016258 41,70 41,53.983742 53.983742,41 70,41 86.016258,41 99,53.983742 99,70 z"/>
                        </g>
                    </g>
                    <g  transform="translate(-22.222223,-399.99997)">
                        <g >
                            <circle fill="none" cx="70" gorn="0.5.0.0.0.1.0.0"  cy="170" stroke="#ffbf00" id="connector1pin" r="29" stroke-width="20" d="m 99,170 c 0,16.01626 -12.983742,29 -29,29 -16.016258,0 -29,-12.98374 -29,-29 0,-16.01626 12.983742,-29 29,-29 16.016258,0 29,12.98374 29,29 z"/>
                        </g>
                    </g>
                    <g  transform="translate(-22.222223,-399.99997)">
                        <g >
                            <circle fill="none" cx="70" gorn="0.5.0.0.0.2.0.0"  cy="270" stroke="#ffbf00" id="connector2pin" r="29" stroke-width="20" d="m 99,270 c 0,16.01626 -12.983742,29 -29,29 -16.016258,0 -29,-12.98374 -29,-29 0,-16.01626 12.983742,-29 29,-29 16.016258,0 29,12.98374 29,29 z"/>
                        </g>
                    </g>
                    <g  transform="translate(-22.222223,-399.99997)">
                        <g >
                            <circle fill="none" cx="70" gorn="0.5.0.0.0.3.0.0"  cy="370" stroke="#ffbf00" id="connector3pin" r="29" stroke-width="20" d="m 99,370 c 0,16.01626 -12.983742,29 -29,29 -16.016258,0 -29,-12.98374 -29,-29 0,-16.01626 12.983742,-29 29,-29 16.016258,0 29,12.98374 29,29 z"/>
                        </g>
                    </g>
                    <g  transform="translate(-22.222223,-399.99997)">
                        <g >
                            <circle fill="none" cx="70" gorn="0.5.0.0.0.4.0.0"  cy="70" stroke="#ffbf00" id="circle23" r="29" stroke-width="20" d="M 99,70 C 99,86.016258 86.016258,99 70,99 53.983742,99 41,86.016258 41,70 41,53.983742 53.983742,41 70,41 86.016258,41 99,53.983742 99,70 z"/>
                        </g>
                    </g>
                    <g  transform="translate(-22.222223,-399.99997)">
                        <g >
                            <circle fill="none" cx="70" gorn="0.5.0.0.0.5.0.0"  cy="170" stroke="#ffbf00" id="circle25" r="29" stroke-width="20" d="m 99,170 c 0,16.01626 -12.983742,29 -29,29 -16.016258,0 -29,-12.98374 -29,-29 0,-16.01626 12.983742,-29 29,-29 16.016258,0 29,12.98374 29,29 z"/>
                        </g>
                    </g>
                    <g  transform="translate(-22.222223,-399.99997)">
                        <g >
                            <circle fill="none" cx="70" gorn="0.5.0.0.0.6.0.0"  cy="270" stroke="#ffbf00" id="circle27" r="29" stroke-width="20" d="m 99,270 c 0,16.01626 -12.983742,29 -29,29 -16.016258,0 -29,-12.98374 -29,-29 0,-16.01626 12.983742,-29 29,-29 16.016258,0 29,12.98374 29,29 z"/>
                        </g>
                    </g>
                    <g  transform="translate(-22.222223,-399.99997)">
                        <g >
                            <circle fill="none" cx="70" gorn="0.5.0.0.0.7.0.0"  cy="370" stroke="#ffbf00" id="circle29" r="29" stroke-width="20" d="m 99,370 c 0,16.01626 -12.983742,29 -29,29 -16.016258,0 -29,-12.98374 -29,-29 0,-16.01626 12.983742,-29 29,-29 16.016258,0 29,12.98374 29,29 z"/>
                        </g>
                    </g>
                    <g  transform="translate(-122.29755,9.3220332)">
                        <g >
                            <circle fill="none" cx="170" gorn="0.5.0.0.0.8.0.0"  cy="370" stroke="#ffbf00" id="connector4pin" r="29" stroke-width="20" d="m 199,370 c 0,16.01626 -12.98374,29 -29,29 -16.01626,0 -29,-12.98374 -29,-29 0,-16.01626 12.98374,-29 29,-29 16.01626,0 29,12.98374 29,29 z"/>
                        </g>
                    </g>
                    <g  transform="translate(-122.29755,9.3220332)">
                        <g >
                            <circle fill="none" cx="170" gorn="0.5.0.0.0.9.0.0"  cy="270" stroke="#ffbf00" id="connector5pin" r="29" stroke-width="20" d="m 199,270 c 0,16.01626 -12.98374,29 -29,29 -16.01626,0 -29,-12.98374 -29,-29 0,-16.01626 12.98374,-29 29,-29 16.01626,0 29,12.98374 29,29 z"/>
                        </g>
                    </g>
                    <g  transform="translate(-122.29755,9.3220332)">
                        <g >
                            <circle fill="none" cx="170" gorn="0.5.0.0.0.10.0.0"  cy="170" stroke="#ffbf00" id="connector6pin" r="29" stroke-width="20" d="m 199,170 c 0,16.01626 -12.98374,29 -29,29 -16.01626,0 -29,-12.98374 -29,-29 0,-16.01626 12.98374,-29 29,-29 16.01626,0 29,12.98374 29,29 z"/>
                        </g>
                    </g>
                    <g  transform="translate(-122.29755,9.3220332)">
                        <g >
                            <circle fill="none" cx="170" gorn="0.5.0.0.0.11.0.0"  cy="70" stroke="#ffbf00" id="connector7pin" r="29" stroke-width="20" d="m 199,70 c 0,16.016258 -12.98374,29 -29,29 -16.01626,0 -29,-12.983742 -29,-29 0,-16.016258 12.98374,-29 29,-29 16.01626,0 29,12.983742 29,29 z"/>
                        </g>
                    </g>
                </g>
            </g>
        </g>
    </g>
</svg>
