<?xml version='1.0' encoding='UTF-8' standalone='no'?>
<svg xmlns="http://www.w3.org/2000/svg" width="1.6685in" y="0px" gorn="0" version="1.2" id="svg17769"  height="0.77389in" viewBox="0 0 120.132 55.721" x="0px">
    <desc >
        <referenceFile >dc_motor_encoder.svg</referenceFile>
    </desc>
    <metadata id="metadata17847" >
        <rdf:RDF xmlns:rdf="http://www.w3.org/1999/02/22-rdf-syntax-ns#">
            <cc:Work xmlns:cc="http://creativecommons.org/ns#" xmlns:rdf="http://www.w3.org/1999/02/22-rdf-syntax-ns#" rdf:about="">
                <dc:format xmlns:dc="http://purl.org/dc/elements/1.1/">image/svg+xml</dc:format>
                <dc:type xmlns:rdf="http://www.w3.org/1999/02/22-rdf-syntax-ns#" rdf:resource="http://purl.org/dc/dcmitype/StillImage" xmlns:dc="http://purl.org/dc/elements/1.1/"/>
                <dc:title xmlns:dc="http://purl.org/dc/elements/1.1/"/>
            </cc:Work>
        </rdf:RDF>
    </metadata>
    <defs id="defs17845" >
        <linearGradient id="linearGradient21190"  paint="solid">
            <stop offset="0" id="stop21192" style="stop-color:#000000;stop-opacity:1;" />
        </linearGradient>
    </defs>
    <g gorn="0.3" id="breadboard" >
        <g gorn="0.3.0" id="g17774" >
            <rect width="12.975" fill="#878787" y="25.221" gorn="0.3.0.0" id="rect17776"  height="4.562" x="107.157"/>
            <rect width="0.451" fill="#2D2D2D" y="25.221" gorn="0.3.0.1" id="rect17778"  height="4.562" x="107.157"/>
            <rect width="12.975" y="29.258" gorn="0.3.0.2" opacity="0.35" id="rect17780"  height="0.522" x="107.157"/>
            <path fill="#FFFFFF" d="M119.835,26.478c0,0.255-0.275,0.461-0.617,0.461H106.78c-0.34,0-0.617-0.188-0.617-0.443    v-0.369c0-0.256,0.277-0.479,0.617-0.479h12.438c0.342,0,0.617,0.207,0.617,0.461V26.478z" gorn="0.3.0.3" opacity="0.35" id="path17782" />
        </g>
        <g gorn="0.3.1" id="g17784" >
            <path stroke="#6D6D6D" fill="#6D6D6D" d="M106.687,7.465c0-1.561-1.275-2.834-2.834-2.834h-0.031c-1.561,0-2.836-0.93-2.836-2.062    c0-1.132-1.273-2.061-2.834-2.061H28.507v54.701h69.645c1.561,0,2.834-0.93,2.834-2.062s1.275-2.061,2.836-2.061h0.031    c1.559,0,2.834-1.275,2.834-2.836V7.465L106.687,7.465z" gorn="0.3.1.0" stroke-width="1" id="path17786" />
        </g>
        <path d="M104.28,47.815h-0.029c-1.551,0-3.102,0.606-3.102,1.346c0,0.738-0.982,1.346-2.531,1.346H34.22v4.453   h63.833c1.547,0,2.812-0.926,2.812-2.055c0-1.129,1.27-2.055,2.816-2.055h0.031c1.549,0,2.814-1.271,2.814-2.824v-2.061   C106.53,46.983,105.829,47.815,104.28,47.815z" gorn="0.3.2" opacity="0.35" id="path17788" />
        <rect width="0.94" fill="#878787" y="26.34" gorn="0.3.3" id="rect17790"  height="3.041" x="23.905"/>
        <rect width="10.242" fill="#E5E500" y="25.069" gorn="0.3.4" id="rect17792"  height="5.584" x="27.642"/>
        <g gorn="0.3.5" id="g17794" >
            <rect width="8.2145777" y="18.865999" gorn="0.3.5.0" id="rect17796" style="fill:#000000"  height="17.988001" x="19.427422"/>
            <polygon fill="#F3FF00" points="35.158,25.069 35.158,0 27.642,0 27.642,26 37.884,26 37.884,29.719 27.642,29.719 27.642,55.721     35.158,55.721 35.158,30.653 37.884,30.653 37.884,25.069   " gorn="0.3.5.1" id="polygon17798" />
            <rect width="8.2145777" y="14.610984" gorn="0.3.5.2" id="rect17796-9" style="fill:#000000"  height="2.7328925" x="19.426199"/>
            <rect width="8.2145777" y="38.504292" gorn="0.3.5.3" id="rect17796-9-6" style="fill:#000000"  height="2.7328925" x="19.392111"/>
        </g>
        <path fill="#686868" d="M101.724,28.065c0,13.27-0.758,24.021-0.758,24.021V4.047   C100.966,4.047,101.724,14.803,101.724,28.065z" gorn="0.3.6" opacity="0.5" id="path17800" />
        <path fill="#FFFFFF" d="M99.819,17.839c0,1.417-1.425,2.564-3.181,2.564H41.119c-1.757,0-3.181-1.049-3.181-2.467   V5.144c0-1.418,1.424-2.668,3.181-2.668h55.519c1.756,0,3.181,1.15,3.181,2.568V17.839z" gorn="0.3.7" opacity="0.16" id="path17802" />
        <g gorn="0.3.8" opacity="0.16" id="g17804" >
            <path fill="#FFFFFF" d="M105.595,18.178c0,0.78-0.639,1.417-1.417,1.417h-0.352c-0.777,0-1.417-0.638-1.417-1.417V7.685    c0-0.78,0.64-1.417,1.417-1.417h0.352c0.778,0,1.417,0.638,1.417,1.417V18.178z" gorn="0.3.8.0" id="path17806" />
        </g>
        <g gorn="0.3.9" id="g17808" >
            <path d="M92.049,24.66c-1.034,0-1.876-0.841-1.876-1.875v-8.422c0-1.035,0.842-1.877,1.876-1.877s1.876,0.842,1.876,1.877v8.422    C93.925,23.818,93.083,24.66,92.049,24.66L92.049,24.66z" gorn="0.3.9.0" id="path17810" />
            <path fill="#6B6B6B" d="M92.049,12.986c0.759,0,1.376,0.618,1.376,1.377v8.422c0,0.76-0.617,1.375-1.376,1.375    s-1.376-0.615-1.376-1.375v-8.422C90.673,13.603,91.29,12.986,92.049,12.986 M92.049,11.986c-1.312,0-2.376,1.064-2.376,2.377    v8.422c0,1.312,1.062,2.375,2.376,2.375c1.312,0,2.376-1.062,2.376-2.375v-8.422C94.425,13.05,93.361,11.986,92.049,11.986    L92.049,11.986z" gorn="0.3.9.1" id="path17812" />
        </g>
        <g gorn="0.3.10" id="g17814" >
            <path d="M92.049,43.234c-1.034,0-1.876-0.842-1.876-1.876v-8.421c0-1.035,0.842-1.877,1.876-1.877s1.876,0.842,1.876,1.877v8.421    C93.925,42.392,93.083,43.234,92.049,43.234L92.049,43.234z" gorn="0.3.10.0" id="path17816" />
            <path fill="#6B6B6B" d="M92.049,31.56c0.759,0,1.376,0.618,1.376,1.377v8.421c0,0.759-0.617,1.376-1.376,1.376    s-1.376-0.617-1.376-1.376v-8.421C90.673,32.178,91.29,31.56,92.049,31.56 M92.049,30.56c-1.312,0-2.376,1.064-2.376,2.377v8.421    c0,1.312,1.062,2.376,2.376,2.376c1.312,0,2.376-1.062,2.376-2.376v-8.421C94.425,31.625,93.361,30.56,92.049,30.56L92.049,30.56z    " gorn="0.3.10.1" id="path17818" />
        </g>
        <g gorn="0.3.11" id="g17820" >
            <path d="M92.049,6.086c-1.034,0-1.876-0.843-1.876-1.875V0.5h3.752v3.711C93.925,5.245,93.083,6.086,92.049,6.086L92.049,6.086z" gorn="0.3.11.0" id="path17822" />
            <path fill="#6B6B6B" d="M93.425,1v3.211c0,0.758-0.617,1.375-1.376,1.375s-1.376-0.617-1.376-1.375V1H93.425 M94.425,0h-4.752    v4.211c0,1.312,1.062,2.375,2.376,2.375c1.312,0,2.376-1.063,2.376-2.375V0L94.425,0z" gorn="0.3.11.1" id="path17824" />
        </g>
        <g gorn="0.3.12" id="g17826" >
            <path d="M90.173,55.221V51.51c0-1.035,0.842-1.877,1.876-1.877s1.876,0.842,1.876,1.877v3.711H90.173z" gorn="0.3.12.0" id="path17828" />
            <path fill="#6B6B6B" d="M92.049,50.133c0.759,0,1.376,0.618,1.376,1.377v3.211h-2.752V51.51    C90.673,50.751,91.29,50.133,92.049,50.133 M92.049,49.133c-1.312,0-2.376,1.062-2.376,2.377v4.211h4.752V51.51    C94.425,50.198,93.361,49.133,92.049,49.133L92.049,49.133z" gorn="0.3.12.1" id="path17830" />
        </g>
        <g transform="translate(0.50181278,0.10036255)" >
            <g >
                <g gorn="0.3.13.0.0" id="wires" >
                    <path stroke-opacity="1" stroke="#ff0000" fill="none" d="M 19.089037,44.377086 C 10.815751,44.51851 9.3620059,13.157984 0.8932367,12.904217" gorn="0.3.13.0.0.0" id="path21208" stroke-width="1.60002637" style="fill-rule:evenodd;stroke-linecap:round;stroke-linejoin:miter;stroke-miterlimit:4;stroke-dasharray:none;" />
                    <path stroke-opacity="1" stroke="#000000" fill="none" d="M 19.164038,46.382019 C 8.1329901,46.947713 7.7680455,21.522766 0.82859149,21.153922" gorn="0.3.13.0.0.1" id="path21210" stroke-width="1.60002637" style="fill-rule:evenodd;stroke-linecap:round;stroke-linejoin:miter;stroke-miterlimit:4;stroke-dasharray:none;" />
                    <path stroke-opacity="1" stroke="#ffff00" fill="none" d="M 19.251539,48.32445 C 6.735543,49.243705 4.9372882,29.610209 0.95181651,29.28956" gorn="0.3.13.0.0.2" id="path21212" stroke-width="1.60002637" style="fill-rule:evenodd;stroke-linecap:round;stroke-linejoin:miter;stroke-miterlimit:4;stroke-dasharray:none;" />
                    <path stroke-opacity="1" stroke="#00ff00" fill="none" d="M 19.351174,50.408305 C 4.4309739,51.044711 4.8482535,37.620386 0.9599642,37.46891" gorn="0.3.13.0.0.3" id="path21214" stroke-width="1.60002637" style="fill-rule:evenodd;stroke-linecap:round;stroke-linejoin:miter;stroke-miterlimit:4;stroke-dasharray:none;" />
                    <path stroke-opacity="1" stroke="#0000ff" fill="none" d="M 19.338673,52.429658 C 3.9234908,52.571082 5.6330124,45.890295 0.89531853,45.67816" gorn="0.3.13.0.0.4" id="path21216" stroke-width="1.60002637" style="fill-rule:evenodd;stroke-linecap:round;stroke-linejoin:miter;stroke-miterlimit:4;stroke-dasharray:none;" />
                    <path stroke-opacity="1" stroke="#c8c8c8" fill="none" d="M 19.405463,54.509224 C 5.2630945,54.862783 7.169434,53.619386 0.66602544,53.852484" gorn="0.3.13.0.0.5" id="path21218" stroke-width="1.60002637" style="fill-rule:evenodd;stroke-linecap:round;stroke-linejoin:miter;stroke-miterlimit:4;stroke-dasharray:none;" />
                    <rect width="8.1318626" stroke-opacity="1" stroke="none" fill="#ececec" y="43.387489" gorn="0.3.13.0.0.6" id="rect19727" stroke-width="0.80001318"  height="12.23315" x="18.942955"/>
                </g>
            </g>
        </g>
        <g transform="translate(-20.506435,0.21213553)" >
            <g >
                <g gorn="0.3.14.0.0" id="g18012" >
                    <rect width="1" y="12.27589" gorn="0.3.14.0.0.0" id="connector0pin" style="fill:#8c8c8c"  x="21.509718" height="1"/>
                    <rect width="1" y="20.476009" gorn="0.3.14.0.0.1" id="connector1pin" style="fill:#8c8c8c"  x="21.509718" height="1"/>
                    <rect width="1" y="28.676128" gorn="0.3.14.0.0.2" id="connector2pin" style="fill:#8c8c8c"  x="21.509718" height="1"/>
                    <rect width="1" y="36.876247" gorn="0.3.14.0.0.3" id="connector3pin" style="fill:#8c8c8c"  x="21.509718" height="1"/>
                    <rect width="1" y="45.076366" gorn="0.3.14.0.0.4" id="connector4pin" style="fill:#8c8c8c"  x="21.509718" height="1"/>
                    <rect width="1" y="53.276485" gorn="0.3.14.0.0.5" id="connector5pin" style="fill:#8c8c8c"  x="21.509718" height="1"/>
                </g>
            </g>
        </g>
    </g>
</svg>
