<?xml version='1.0' encoding='UTF-8' standalone='no'?>
<!-- Created with Inkscape (http://www.inkscape.org/) -->
<svg xmlns="http://www.w3.org/2000/svg" version="1.1"  viewBox="0 0 212.59842 177.16536" gorn="0" height="50mm" id="svg2" width="60mm">
    <desc >
        <referenceFile >Fan-Ventilador_byKarlaLHdz.svg</referenceFile>
    </desc>
    <defs  id="defs4">
        <linearGradient  id="linearGradient4763">
            <stop  offset="0" style="stop-color:#4d4d4d;stop-opacity:1;" id="stop4765"/>
            <stop  offset="1" style="stop-color:#4d4d4d;stop-opacity:0;" id="stop4767"/>
        </linearGradient>
        <linearGradient  id="linearGradient4740">
            <stop  offset="0" style="stop-color:#4d4d4d;stop-opacity:1;" id="stop4742"/>
            <stop  offset="1" style="stop-color:#4d4d4d;stop-opacity:0;" id="stop4744"/>
        </linearGradient>
        <linearGradient  id="linearGradient4717">
            <stop  offset="0" style="stop-color:#4d4d4d;stop-opacity:1;" id="stop4719"/>
            <stop  offset="1" style="stop-color:#4d4d4d;stop-opacity:0;" id="stop4721"/>
        </linearGradient>
        <linearGradient  id="linearGradient4670">
            <stop  offset="0" style="stop-color:#4d4d4d;stop-opacity:1;" id="stop4672"/>
            <stop  offset="1" style="stop-color:#4d4d4d;stop-opacity:0;" id="stop4674"/>
        </linearGradient>
        <linearGradient  id="linearGradient4647">
            <stop  offset="0" style="stop-color:#333333;stop-opacity:1;" id="stop4649"/>
            <stop  offset="1" style="stop-color:#333333;stop-opacity:0;" id="stop4651"/>
        </linearGradient>
        <linearGradient  id="linearGradient4624">
            <stop  offset="0" style="stop-color:#333333;stop-opacity:1;" id="stop4626"/>
            <stop  offset="1" style="stop-color:#333333;stop-opacity:0;" id="stop4628"/>
        </linearGradient>
        <linearGradient  id="linearGradient4601">
            <stop  offset="0" style="stop-color:#333333;stop-opacity:1;" id="stop4603"/>
            <stop  offset="1" style="stop-color:#333333;stop-opacity:0;" id="stop4605"/>
        </linearGradient>
        <linearGradient  id="linearGradient4554">
            <stop  offset="0" style="stop-color:#4d4d4d;stop-opacity:1;" id="stop4556"/>
            <stop  offset="1" style="stop-color:#4d4d4d;stop-opacity:0;" id="stop4558"/>
        </linearGradient>
        <radialGradient  r="74.086098" gradientTransform="matrix(1,0,0,1.300054,-1.006383,-72.620721)" gradientUnits="userSpaceOnUse" fy="198.42329" cy="198.42329" id="radialGradient4475" cx="404.5675" href="#linearGradient4469" fx="404.5675"/>
        <linearGradient  id="linearGradient4469">
            <stop  offset="0" style="stop-color:#4d4d4d;stop-opacity:1;" id="stop4471"/>
            <stop  offset="1" style="stop-color:#4d4d4d;stop-opacity:0;" id="stop4473"/>
        </linearGradient>
        <radialGradient  r="101.23803" gradientTransform="matrix(1,0,0,0.88223245,-1.0063868,30.181679)" gradientUnits="userSpaceOnUse" fy="247.73627" cy="247.73627" id="radialGradient4560" cx="532.3786" href="#linearGradient4554" fx="532.3786"/>
        <radialGradient  r="100.62581" gradientTransform="matrix(1,0,0,0.80345864,-36.229925,87.458563)" gradientUnits="userSpaceOnUse" fy="444.98807" cy="444.98807" id="radialGradient4607" cx="577.66602" href="#linearGradient4601" fx="577.66602"/>
        <radialGradient  r="75.188576" gradientTransform="matrix(1,0,0,1.3074297,-27.197991,-181.90949)" gradientUnits="userSpaceOnUse" fy="542.6076" cy="542.6076" id="radialGradient4630" cx="456.8996" href="#linearGradient4624" fx="456.8996"/>
        <radialGradient  r="87.13015" gradientTransform="matrix(1,0,0,1.158619,-29.185218,-84.554908)" gradientUnits="userSpaceOnUse" fy="501.34573" cy="501.34573" id="radialGradient4653" cx="260.65417" href="#linearGradient4647" fx="260.65417"/>
        <radialGradient  r="95.543182" gradientTransform="matrix(1,0,0,0.76892225,-17.108576,113.09501)" gradientUnits="userSpaceOnUse" fy="354.41327" cy="354.41327" id="radialGradient4676" cx="181.14963" href="#linearGradient4670" fx="181.14963"/>
        <radialGradient  r="94.987923" gradientTransform="matrix(1,0,0,1.0436142,-9.070255,0.2334031)" gradientUnits="userSpaceOnUse" fy="201.44246" cy="201.44246" id="radialGradient4723" cx="235.49451" href="#linearGradient4717" fx="235.49451"/>
        <radialGradient  r="113.26185" gradientTransform="matrix(1,0,0,0.95872097,-49.312954,53.980731)" gradientUnits="userSpaceOnUse" fy="308.11948" cy="308.11948" id="radialGradient4746" cx="412.61859" href="#linearGradient4740" fx="412.61859"/>
        <radialGradient  r="10.567061" gradientTransform="matrix(1,0,0,0.90476191,0,33.945334)" gradientUnits="userSpaceOnUse" fy="356.42603" cy="356.42603" id="radialGradient4769" cx="360.28647" href="#linearGradient4763" fx="360.28647"/>
    </defs>
    <metadata  id="metadata7">
        <rdf:RDF xmlns:rdf="http://www.w3.org/1999/02/22-rdf-syntax-ns#">
            <cc:Work xmlns:cc="http://creativecommons.org/ns#" rdf:about="" xmlns:rdf="http://www.w3.org/1999/02/22-rdf-syntax-ns#">
                <dc:format xmlns:dc="http://purl.org/dc/elements/1.1/">image/svg+xml</dc:format>
                <dc:type xmlns:rdf="http://www.w3.org/1999/02/22-rdf-syntax-ns#" rdf:resource="http://purl.org/dc/dcmitype/StillImage" xmlns:dc="http://purl.org/dc/elements/1.1/"/>
                <dc:title xmlns:dc="http://purl.org/dc/elements/1.1/"/>
            </cc:Work>
        </rdf:RDF>
    </metadata>
    <g  transform="translate(0,-531.49605)">
        <g >
            <g  style="display:inline" gorn="0.3.0.0" id="layer3">
                <g  transform="matrix(0.29879752,0,0,0.29879752,5.3899727,514.85112)">
                    <g >
                        <g  gorn="0.3.0.0.0.0.0" id="g4877">
                            <path fill-opacity="1"  d="m 186.28125,79.306641 -18.67578,7.15625 117.96289,307.853519 19.27148,-2.42188 13.6875,-117.72656 295.03711,-114.3457 -7.22656,-18.64844 -306.2832,118.70312 -10.37891,89.26172 L 186.28125,79.306641 Z" stroke="none" style="color:#000000;font-style:normal;font-variant:normal;font-weight:normal;font-stretch:normal;line-height:normal;font-family:Droid Sans;text-indent:0;text-align:start;text-decoration:none;text-decoration-line:none;text-decoration-style:solid;text-decoration-color:#000000;letter-spacing:normal;word-spacing:normal;text-transform:none;direction:ltr;block-progression:tb;writing-mode:lr-tb;baseline-shift:baseline;text-anchor:start;white-space:normal;clip-rule:nonzero;display:inline;overflow:visible;visibility:visible;opacity:1;isolation:auto;mix-blend-mode:normal;color-interpolation:sRGB;color-interpolation-filters:linearRGB;solid-color:#000000;solid-opacity:1;fill-rule:evenodd;stroke-linecap:butt;stroke-linejoin:miter;stroke-miterlimit:4;stroke-dasharray:none;stroke-dashoffset:0;color-rendering:auto;image-rendering:auto;shape-rendering:auto;text-rendering:auto;enable-background:accumulate" stroke-width="20" stroke-opacity="1" gorn="0.3.0.0.0.0.0.0" id="path4272" fill="#333333" font-size="medium"/>
                            <path fill-opacity="1"  d="m 461.13086,315.45898 -19.3418,2.0918 -10.69922,84.25195 -363.572262,113.17383 5.94336,19.09571 375.849612,-116.99415 7.02734,-55.33398 c 8.63568,24.29593 17.86374,50.22572 36.11523,101.74414 12.67601,35.7805 25.48679,72.01055 35.39454,100.1836 9.90774,28.17304 17.25496,49.46382 17.85937,51.47851 l 19.1582,-5.74609 c -1.55344,-5.17814 -8.23291,-24.16647 -18.15039,-52.36719 -9.91747,-28.20072 -22.73145,-64.43845 -35.41015,-100.22656 -25.35741,-71.57623 -50.17383,-141.35157 -50.17383,-141.35157 z" stroke="none" style="color:#000000;font-style:normal;font-variant:normal;font-weight:normal;font-stretch:normal;line-height:normal;font-family:Droid Sans;text-indent:0;text-align:start;text-decoration:none;text-decoration-line:none;text-decoration-style:solid;text-decoration-color:#000000;letter-spacing:normal;word-spacing:normal;text-transform:none;direction:ltr;block-progression:tb;writing-mode:lr-tb;baseline-shift:baseline;text-anchor:start;white-space:normal;clip-rule:nonzero;display:inline;overflow:visible;visibility:visible;opacity:1;isolation:auto;mix-blend-mode:normal;color-interpolation:sRGB;color-interpolation-filters:linearRGB;solid-color:#000000;solid-opacity:1;fill-rule:evenodd;stroke-linecap:butt;stroke-linejoin:miter;stroke-miterlimit:4;stroke-dasharray:none;stroke-dashoffset:0;color-rendering:auto;image-rendering:auto;shape-rendering:auto;text-rendering:auto;enable-background:accumulate" stroke-width="20" stroke-opacity="1" gorn="0.3.0.0.0.0.0.1" id="path4274" fill="#333333" font-size="medium"/>
                            <path fill-opacity="1"  d="m 89.083984,62.302734 c -20.416308,0 -36.851562,16.435254 -36.851562,36.851563 l 0,510.353513 c 0,20.41631 16.435254,36.85157 36.851562,36.85157 l 530.492186,0 c 20.41631,0 36.85352,-16.43526 36.85352,-36.85157 l 0,-510.353513 c 0,-20.416309 -16.43721,-36.851563 -36.85352,-36.851563 l -530.492186,0 z M 367.09375,75.914062 A 293.59491,278.67966 0 0 1 647.73633,364.34375 293.59491,278.67966 0 0 1 345.99805,632.89844 293.59491,278.67966 0 0 1 60.798828,348.52344 l 0.31836,-8.40821 A 293.59491,278.67966 0 0 1 367.09375,75.914062 Z" stroke="none" style="display:inline;opacity:1;fill-rule:nonzero;stroke-linecap:round;stroke-linejoin:round;stroke-miterlimit:4;stroke-dasharray:none;stroke-dashoffset:0;" stroke-width="3" stroke-opacity="1" gorn="0.3.0.0.0.0.0.2" id="rect4257" fill="#1c1c1c"/>
                            <path fill-opacity="1"  d="m 355.12479,274.0538 c 0,0 3.0018,-65.14122 -2.15785,-97.10314 -4.55664,-28.22649 -25.17489,-81.998197 -25.17489,-81.998197 0,0 48.52587,-6.043766 72.64754,-3.596413 25.86111,2.623834 75.52466,19.42062 75.52466,19.42062 0,0 -16.96409,63.54919 -30.20987,93.50673 -12.2905,27.79702 -45.31479,79.12108 -45.31479,79.12108 z" stroke="none" style="display:inline;opacity:1;fill-rule:evenodd;stroke-linecap:butt;stroke-linejoin:miter;" stroke-width="1" stroke-opacity="1" gorn="0.3.0.0.0.0.0.3" id="path4165" fill="#1c1c1c"/>
                            <path fill-opacity="1"  d="m 356.80776,272.30552 c 0,0 3.0018,-65.14122 -2.15785,-97.10313 -4.55664,-28.22649 -25.17489,-81.998205 -25.17489,-81.998205 0,0 48.52587,-6.04376 72.64754,-3.59641 25.86111,2.62383 75.52466,19.420625 75.52466,19.420625 0,0 -16.96409,63.54919 -30.20987,93.50672 -12.2905,27.79702 -45.31479,79.12108 -45.31479,79.12108 z" stroke="none" style="display:inline;opacity:1;fill-rule:evenodd;stroke-linecap:butt;stroke-linejoin:miter;" stroke-width="1" stroke-opacity="1" gorn="0.3.0.0.0.0.0.4" id="path4165-2" fill="url(#radialGradient4475)"/>
                            <path fill-opacity="1"  d="m 431.48491,300.30947 c 0,0 51.06017,-40.56166 71.75295,-65.46137 18.27439,-21.98964 45.23937,-72.87577 45.23937,-72.87577 0,0 36.45502,32.59323 50.46835,52.37886 15.02384,21.21239 35.0154,69.67824 35.0154,69.67824 0,0 -59.03928,28.99386 -90.32135,38.70658 -29.02602,9.01225 -89.41105,17.86728 -89.41105,17.86728 z" stroke="none" style="display:inline;opacity:1;fill-rule:evenodd;stroke-linecap:butt;stroke-linejoin:miter;" stroke-width="1" stroke-opacity="1" gorn="0.3.0.0.0.0.0.5" id="path4165-3" fill="#1c1c1c"/>
                            <path fill-opacity="1"  d="m 458.4719,359.11767 c 0,0 61.69955,21.10817 93.82855,25.0974 28.37403,3.52302 85.76697,-1.22662 85.76697,-1.22662 0,0 -7.77496,48.27875 -16.87371,70.75223 -9.75487,24.09406 -39.77645,67.07435 -39.77645,67.07435 0,0 -56.26452,-34.06735 -81.31942,-55.16609 -23.24796,-19.57709 -63.28205,-65.64264 -63.28205,-65.64264 z" stroke="none" style="display:inline;opacity:1;fill-rule:evenodd;stroke-linecap:butt;stroke-linejoin:miter;" stroke-width="1" stroke-opacity="1" gorn="0.3.0.0.0.0.0.6" id="path4165-3-6" fill="#1c1c1c"/>
                            <path fill-opacity="1"  d="m 408.40031,421.28123 c 0,0 21.56161,61.54254 38.29283,89.25992 14.7758,24.47801 53.99656,66.6472 53.99656,66.6472 0,0 -42.75056,23.74187 -66.03889,30.48711 -24.96767,7.23164 -77.30992,10.21333 -77.30992,10.21333 0,0 -8.01612,-65.28417 -6.92655,-98.02127 1.01098,-30.37611 12.46024,-90.3234 12.46024,-90.3234 z" stroke="none" style="display:inline;opacity:1;fill-rule:evenodd;stroke-linecap:butt;stroke-linejoin:miter;" stroke-width="1" stroke-opacity="1" gorn="0.3.0.0.0.0.0.7" id="path4165-3-6-7" fill="#1c1c1c"/>
                            <path fill-opacity="1"  d="m 320.88263,419.9499 c 0,0 -27.77842,58.99784 -35.28373,90.49161 -6.62818,27.81304 -8.23173,85.37984 -8.23173,85.37984 0,0 -47.12799,-13.04755 -68.46201,-24.56731 -22.87242,-12.35044 -62.28283,-46.9253 -62.28283,-46.9253 0,0 40.05982,-52.16792 63.79092,-74.74533 22.01962,-20.94914 72.2161,-55.66336 72.2161,-55.66336 z" stroke="none" style="display:inline;opacity:1;fill-rule:evenodd;stroke-linecap:butt;stroke-linejoin:miter;" stroke-width="1" stroke-opacity="1" gorn="0.3.0.0.0.0.0.8" id="path4165-3-6-7-5" fill="#1c1c1c"/>
                            <path fill-opacity="1"  d="m 261.68035,380.58004 c 0,0 -63.38172,15.33439 -92.6256,29.2262 -25.82612,12.26823 -71.68672,47.10087 -71.68672,47.10087 0,0 -19.372674,-44.89972 -23.768467,-68.74343 -4.712785,-25.56307 -2.474301,-77.94237 -2.474301,-77.94237 0,0 65.757728,-1.48392 98.224178,2.85591 30.12499,4.02684 88.63648,21.38105 88.63648,21.38105 z" stroke="none" style="display:inline;opacity:1;fill-rule:evenodd;stroke-linecap:butt;stroke-linejoin:miter;" stroke-width="1" stroke-opacity="1" gorn="0.3.0.0.0.0.0.9" id="path4165-3-6-7-5-3" fill="#1c1c1c"/>
                            <path fill-opacity="1"  d="m 287.71744,307.84245 c 0,0 -47.2511,-44.94127 -74.78003,-61.98079 -24.31158,-15.0481 -78.44566,-34.6952 -78.44566,-34.6952 0,0 27.22235,-40.62301 44.87332,-57.24495 18.92376,-17.82057 64.14866,-44.34056 64.14866,-44.34056 0,0 36.9017,54.44764 50.85901,84.08036 12.95073,27.49562 30.09486,86.06901 30.09486,86.06901 z" stroke="none" style="display:inline;opacity:1;fill-rule:evenodd;stroke-linecap:butt;stroke-linejoin:miter;" stroke-width="1" stroke-opacity="1" gorn="0.3.0.0.0.0.0.10" id="path4165-3-6-7-5-3-5" fill="#1c1c1c"/>
                            <path fill-opacity="1"  d="M 475.19523,348.75437 A 113.26185,108.58651 0 0 1 365.1728,459.55982 113.26185,108.58651 0 0 1 248.76926,354.91842 113.26185,108.58651 0 0 1 357.03435,242.5332 113.26185,108.58651 0 0 1 475.07237,345.47792" stroke="none" style="display:inline;opacity:1;fill-rule:nonzero;stroke-linecap:round;stroke-linejoin:round;stroke-miterlimit:4;stroke-dasharray:none;stroke-dashoffset:0;" stroke-width="3.05024576" stroke-opacity="1" gorn="0.3.0.0.0.0.0.11" id="path4163" fill="#1c1c1c"/>
                            <path fill-opacity="1"  d="m 430.1342,297.76431 c 0,0 51.06017,-40.56166 71.75295,-65.46137 18.27439,-21.98964 45.23937,-72.87577 45.23937,-72.87577 0,0 36.45502,32.59323 50.46835,52.37886 15.02384,21.21239 35.0154,69.67824 35.0154,69.67824 0,0 -59.03928,28.99386 -90.32135,38.70658 -29.02602,9.01225 -89.41105,17.86728 -89.41105,17.86728 z" stroke="none" style="display:inline;opacity:1;fill-rule:evenodd;stroke-linecap:butt;stroke-linejoin:miter;" stroke-width="1" stroke-opacity="1" gorn="0.3.0.0.0.0.0.12" id="path4165-3-61" fill="url(#radialGradient4560)"/>
                            <path fill-opacity="1"  d="m 462.4664,364.13939 c 0,0 61.69955,21.10817 93.82855,25.0974 28.37403,3.52302 85.76697,-1.22662 85.76697,-1.22662 0,0 -7.77496,48.27875 -16.87371,70.75223 -9.75487,24.09406 -39.77645,67.07435 -39.77645,67.07435 0,0 -56.26452,-34.06735 -81.31942,-55.16609 -23.24796,-19.57709 -63.28205,-65.64264 -63.28205,-65.64264 z" stroke="none" style="display:inline;opacity:1;fill-rule:evenodd;stroke-linecap:butt;stroke-linejoin:miter;" stroke-width="1" stroke-opacity="1" gorn="0.3.0.0.0.0.0.13" id="path4165-3-6-0" fill="url(#radialGradient4607)"/>
                            <path fill-opacity="1"  d="m 412.60081,429.208 c 0,0 21.56161,61.54254 38.29283,89.25992 14.7758,24.47801 53.99656,66.6472 53.99656,66.6472 0,0 -42.75056,23.74187 -66.03889,30.48711 -24.96767,7.23164 -77.30992,10.21333 -77.30992,10.21333 0,0 -8.01612,-65.28417 -6.92655,-98.02127 1.01098,-30.37611 12.46024,-90.3234 12.46024,-90.3234 z" stroke="none" style="display:inline;opacity:1;fill-rule:evenodd;stroke-linecap:butt;stroke-linejoin:miter;" stroke-width="1" stroke-opacity="1" gorn="0.3.0.0.0.0.0.14" id="path4165-3-6-7-2" fill="url(#radialGradient4630)"/>
                            <path fill-opacity="1"  d="M 476.54289,347.11865 A 113.26185,108.58651 0 0 1 366.52045,457.92411 113.26185,108.58651 0 0 1 250.11691,353.28271 113.26185,108.58651 0 0 1 358.38201,240.89749 113.26185,108.58651 0 0 1 476.42002,343.84221" stroke="none" style="display:inline;opacity:1;fill-rule:nonzero;stroke-linecap:round;stroke-linejoin:round;stroke-miterlimit:4;stroke-dasharray:none;stroke-dashoffset:0;" stroke-width="3.05024576" stroke-opacity="1" gorn="0.3.0.0.0.0.0.15" id="path4163-3" fill="url(#radialGradient4746)"/>
                            <path fill-opacity="1"  d="m 318.59911,421.393 c 0,0 -27.77842,58.99784 -35.28373,90.49161 -6.62818,27.81304 -8.23173,85.37984 -8.23173,85.37984 0,0 -47.12799,-13.04755 -68.46201,-24.56731 -22.87242,-12.35044 -62.28283,-46.9253 -62.28283,-46.9253 0,0 40.05982,-52.16792 63.79092,-74.74533 22.01962,-20.94914 72.2161,-55.66336 72.2161,-55.66336 z" stroke="none" style="display:inline;opacity:1;fill-rule:evenodd;stroke-linecap:butt;stroke-linejoin:miter;" stroke-width="1" stroke-opacity="1" gorn="0.3.0.0.0.0.0.16" id="path4165-3-6-7-5-37" fill="url(#radialGradient4653)"/>
                            <path fill-opacity="1"  d="m 259.58423,382.74946 c 0,0 -63.38172,15.33439 -92.62561,29.2262 -25.82612,12.26823 -71.686716,47.10087 -71.686716,47.10087 0,0 -19.372671,-44.89972 -23.768464,-68.74343 -4.712785,-25.56307 -2.474301,-77.94237 -2.474301,-77.94237 0,0 65.757721,-1.48392 98.224171,2.85591 30.125,4.02684 88.63649,21.38105 88.63649,21.38105 z" stroke="none" style="display:inline;opacity:1;fill-rule:evenodd;stroke-linecap:butt;stroke-linejoin:miter;" stroke-width="1" stroke-opacity="1" gorn="0.3.0.0.0.0.0.17" id="path4165-3-6-7-5-3-59" fill="url(#radialGradient4676)"/>
                            <path fill-opacity="1"  d="m 284.66203,309.59237 c 0,0 -47.2511,-44.94127 -74.78003,-61.98079 -24.31158,-15.0481 -78.44566,-34.6952 -78.44566,-34.6952 0,0 27.22235,-40.62301 44.87332,-57.24495 18.92376,-17.82057 64.14866,-44.34056 64.14866,-44.34056 0,0 36.9017,54.44764 50.85901,84.08036 12.95073,27.49562 30.09486,86.06901 30.09486,86.06901 z" stroke="none" style="display:inline;opacity:1;fill-rule:evenodd;stroke-linecap:butt;stroke-linejoin:miter;" stroke-width="1" stroke-opacity="1" gorn="0.3.0.0.0.0.0.18" id="path4165-3-6-7-5-3-5-7" fill="url(#radialGradient4723)"/>
                            <rect fill-opacity="1"  ry="1.5270679" stroke="none" style="display:inline;opacity:1;fill-rule:nonzero;stroke-linecap:round;stroke-linejoin:round;stroke-miterlimit:4;stroke-dasharray:none;stroke-dashoffset:0;" stroke-width="8" stroke-opacity="1" gorn="0.3.0.0.0.0.0.19" height="6.7786922" id="rect4841-3" y="574.94629" x="11.86271" fill="#2b2200" width="4.4826832"/>
                            <path fill-opacity="1"  d="m 58.232518,574.05522 -46.884766,0.44726 0.07617,8 46.884766,-0.44726 -0.07617,-8 z" stroke="none" style="color:#000000;font-style:normal;font-variant:normal;font-weight:normal;font-stretch:normal;line-height:normal;font-family:Droid Sans;text-indent:0;text-align:start;text-decoration:none;text-decoration-line:none;text-decoration-style:solid;text-decoration-color:#000000;letter-spacing:normal;word-spacing:normal;text-transform:none;direction:ltr;block-progression:tb;writing-mode:lr-tb;baseline-shift:baseline;text-anchor:start;white-space:normal;clip-rule:nonzero;display:inline;overflow:visible;visibility:visible;opacity:1;isolation:auto;mix-blend-mode:normal;color-interpolation:sRGB;color-interpolation-filters:linearRGB;solid-color:#000000;solid-opacity:1;fill-rule:evenodd;stroke-linecap:butt;stroke-linejoin:miter;stroke-miterlimit:4;stroke-dasharray:none;stroke-dashoffset:0;color-rendering:auto;image-rendering:auto;shape-rendering:auto;text-rendering:auto;enable-background:accumulate" stroke-width="8" stroke-opacity="1" gorn="0.3.0.0.0.0.0.20" id="path4822-9" fill="#000000" font-size="medium"/>
                            <rect fill-opacity="1"  ry="1.5270679" stroke="none" style="opacity:1;fill-rule:nonzero;stroke-linecap:round;stroke-linejoin:round;stroke-miterlimit:4;stroke-dasharray:none;stroke-dashoffset:0;" stroke-width="8" stroke-opacity="1" gorn="0.3.0.0.0.0.0.21" height="6.7786922" id="rect4841" y="548.37817" x="11.917377" fill="#2b2200" width="4.4826832"/>
                            <path fill-opacity="1"  d="m 58.337767,547.41477 -46.884766,0.44726 0.07617,8 46.884766,-0.44726 -0.07617,-8 z" stroke="none" style="color:#000000;font-style:normal;font-variant:normal;font-weight:normal;font-stretch:normal;line-height:normal;font-family:Droid Sans;text-indent:0;text-align:start;text-decoration:none;text-decoration-line:none;text-decoration-style:solid;text-decoration-color:#000000;letter-spacing:normal;word-spacing:normal;text-transform:none;direction:ltr;block-progression:tb;writing-mode:lr-tb;baseline-shift:baseline;text-anchor:start;white-space:normal;clip-rule:nonzero;display:inline;overflow:visible;visibility:visible;opacity:1;isolation:auto;mix-blend-mode:normal;color-interpolation:sRGB;color-interpolation-filters:linearRGB;solid-color:#000000;solid-opacity:1;fill-rule:evenodd;stroke-linecap:butt;stroke-linejoin:miter;stroke-miterlimit:4;stroke-dasharray:none;stroke-dashoffset:0;color-rendering:auto;image-rendering:auto;shape-rendering:auto;text-rendering:auto;enable-background:accumulate" stroke-width="8" stroke-opacity="1" gorn="0.3.0.0.0.0.0.22" id="path4822" fill="#ff0000" font-size="medium"/>
                            <path fill-opacity="1"  d="M 73.466238,221.57022 121.7728,149.11037 73.466237,102.81658 Z" stroke="none" style="fill-rule:evenodd;stroke-linecap:butt;stroke-linejoin:miter;" stroke-width="1" stroke-opacity="1" gorn="0.3.0.0.0.0.0.23" id="path4281" fill="#292929"/>
                            <path fill-opacity="1"  d="M 219.38128,75.184377 147.86935,124.88346 100.64987,77.481358 Z" stroke="none" style="fill-rule:evenodd;stroke-linecap:butt;stroke-linejoin:miter;" stroke-width="1" stroke-opacity="1" gorn="0.3.0.0.0.0.0.24" id="path4281-6" fill="#292929"/>
                            <path fill-opacity="1"  d="M 642.57246,220.2905 594.2659,147.83065 642.57246,101.53686 Z" stroke="none" style="fill-rule:evenodd;stroke-linecap:butt;stroke-linejoin:miter;" stroke-width="1" stroke-opacity="1" gorn="0.3.0.0.0.0.0.25" id="path4281-2" fill="#292929"/>
                            <path fill-opacity="1"  d="m 496.65742,73.904657 71.51193,49.699083 47.21948,-47.402103 z" stroke="none" style="fill-rule:evenodd;stroke-linecap:butt;stroke-linejoin:miter;" stroke-width="1" stroke-opacity="1" gorn="0.3.0.0.0.0.0.26" id="path4281-6-9" fill="#292929"/>
                            <path fill-opacity="1"  d="m 499.19367,627.82578 72.17962,-48.72428 46.57204,48.03837 z" stroke="none" style="fill-rule:evenodd;stroke-linecap:butt;stroke-linejoin:miter;" stroke-width="1" stroke-opacity="1" gorn="0.3.0.0.0.0.0.27" id="path4281-2-1" fill="#292929"/>
                            <path fill-opacity="1"  d="m 644.73429,481.06767 -49.28521,71.79778 47.67404,46.94491 z" stroke="none" style="fill-rule:evenodd;stroke-linecap:butt;stroke-linejoin:miter;" stroke-width="1" stroke-opacity="1" gorn="0.3.0.0.0.0.0.28" id="path4281-6-9-2" fill="#292929"/>
                            <path fill-opacity="1"  d="M 215.67724,634.10161 143.49762,585.37733 96.925582,633.4157 Z" stroke="none" style="fill-rule:evenodd;stroke-linecap:butt;stroke-linejoin:miter;" stroke-width="1" stroke-opacity="1" gorn="0.3.0.0.0.0.0.29" id="path4281-2-1-7" fill="#292929"/>
                            <path fill-opacity="1"  d="m 70.136622,487.3435 49.285208,71.79778 -47.674038,46.94491 z" stroke="none" style="fill-rule:evenodd;stroke-linecap:butt;stroke-linejoin:miter;" stroke-width="1" stroke-opacity="1" gorn="0.3.0.0.0.0.0.30" id="path4281-6-9-2-0" fill="#292929"/>
                            <path fill-opacity="1"  d="m 105.69387,608.28839 a 10.567061,9.5606747 0 0 1 -10.264831,9.75604 10.567061,9.5606747 0 0 1 -10.860173,-9.21332 10.567061,9.5606747 0 0 1 10.100876,-9.89514 10.567061,9.5606747 0 0 1 11.012668,9.06394" stroke="none" style="opacity:1;fill-rule:nonzero;stroke-linecap:round;stroke-linejoin:round;stroke-miterlimit:4;stroke-dasharray:none;stroke-dashoffset:0;" stroke-width="20" stroke-opacity="1" gorn="0.3.0.0.0.0.0.31" id="path4352" fill="#292929"/>
                            <path fill-opacity="1"  d="m 630.48628,600.81713 a 10.567061,9.5606747 0 0 1 -10.26484,9.75605 10.567061,9.5606747 0 0 1 -10.86017,-9.21332 10.567061,9.5606747 0 0 1 10.10088,-9.89514 10.567061,9.5606747 0 0 1 11.01266,9.06394" stroke="none" style="opacity:1;fill-rule:nonzero;stroke-linecap:round;stroke-linejoin:round;stroke-miterlimit:4;stroke-dasharray:none;stroke-dashoffset:0;" stroke-width="20" stroke-opacity="1" gorn="0.3.0.0.0.0.0.32" id="path4352-9" fill="#292929"/>
                            <path fill-opacity="1"  d="m 627.5055,97.598202 a 10.567061,9.5606747 0 0 1 -10.26483,9.756048 10.567061,9.5606747 0 0 1 -10.86017,-9.213324 10.567061,9.5606747 0 0 1 10.10087,-9.895138 10.567061,9.5606747 0 0 1 11.01267,9.063934" stroke="none" style="opacity:1;fill-rule:nonzero;stroke-linecap:round;stroke-linejoin:round;stroke-miterlimit:4;stroke-dasharray:none;stroke-dashoffset:0;" stroke-width="20" stroke-opacity="1" gorn="0.3.0.0.0.0.0.33" id="path4352-9-3" fill="#292929"/>
                            <path fill-opacity="1"  d="M 105.15236,99.623715 A 10.567061,9.5606747 0 0 1 94.887528,109.37976 10.567061,9.5606747 0 0 1 84.027354,100.16644 10.567061,9.5606747 0 0 1 94.128231,90.2713 10.567061,9.5606747 0 0 1 105.1409,99.335235" stroke="none" style="opacity:1;fill-rule:nonzero;stroke-linecap:round;stroke-linejoin:round;stroke-miterlimit:4;stroke-dasharray:none;stroke-dashoffset:0;" stroke-width="20" stroke-opacity="1" gorn="0.3.0.0.0.0.0.34" id="path4352-9-3-6" fill="#292929"/>
                            <path fill-opacity="1"  d="m 367.83207,353.20764 a 10.567061,9.5606747 0 0 1 -10.26483,9.75604 10.567061,9.5606747 0 0 1 -10.86018,-9.21332 10.567061,9.5606747 0 0 1 10.10088,-9.89514 10.567061,9.5606747 0 0 1 11.01267,9.06394" stroke="none" style="opacity:1;fill-rule:nonzero;stroke-linecap:round;stroke-linejoin:round;stroke-miterlimit:4;stroke-dasharray:none;stroke-dashoffset:0;" stroke-width="20" stroke-opacity="1" gorn="0.3.0.0.0.0.0.35" id="path4352-9-3-6-0" fill="#333333"/>
                            <path fill-opacity="1"  d="m 370.85124,356.2268 a 10.567061,9.5606747 0 0 1 -10.26484,9.75605 10.567061,9.5606747 0 0 1 -10.86017,-9.21332 10.567061,9.5606747 0 0 1 10.10088,-9.89514 10.567061,9.5606747 0 0 1 11.01266,9.06393" stroke="none" style="display:inline;opacity:1;fill-rule:nonzero;stroke-linecap:round;stroke-linejoin:round;stroke-miterlimit:4;stroke-dasharray:none;stroke-dashoffset:0;" stroke-width="20" stroke-opacity="1" gorn="0.3.0.0.0.0.0.36" id="path4352-9-3-6-0-6" fill="url(#radialGradient4769)"/>
                            <rect fill-opacity="1"  ry="6.8729539" stroke="none" style="opacity:1;fill-rule:nonzero;stroke-linecap:round;stroke-linejoin:round;stroke-miterlimit:4;stroke-dasharray:none;stroke-dashoffset:0;" stroke-width="20" stroke-opacity="1" gorn="0.3.0.0.0.0.0.37" height="19.830164" id="rect4790" y="541.66461" x="48.368504" fill="#000000" width="21.287933"/>
                            <rect fill-opacity="1"  ry="6.8729539" stroke="none" style="display:inline;opacity:1;fill-rule:nonzero;stroke-linecap:round;stroke-linejoin:round;stroke-miterlimit:4;stroke-dasharray:none;stroke-dashoffset:0;" stroke-width="20" stroke-opacity="1" gorn="0.3.0.0.0.0.0.38" height="19.830164" id="rect4790-1" y="568.04883" x="47.777172" fill="#000000" width="21.287933"/>
                        </g>
                    </g>
                </g>
            </g>
        </g>
    </g>
</svg>
