<?xml version='1.0' encoding='UTF-8' standalone='no'?>
<svg xmlns="http://www.w3.org/2000/svg" width="32" gorn="0" id="svg2457" version="1.0"  height="32">
    <desc >
        <referenceFile >dc_motor_encoder_icon.svg</referenceFile>
    </desc>
    <metadata id="metadata23057" >
        <rdf:RDF xmlns:rdf="http://www.w3.org/1999/02/22-rdf-syntax-ns#">
            <cc:Work xmlns:cc="http://creativecommons.org/ns#" xmlns:rdf="http://www.w3.org/1999/02/22-rdf-syntax-ns#" rdf:about="">
                <dc:format xmlns:dc="http://purl.org/dc/elements/1.1/">image/svg+xml</dc:format>
                <dc:type xmlns:rdf="http://www.w3.org/1999/02/22-rdf-syntax-ns#" rdf:resource="http://purl.org/dc/dcmitype/StillImage" xmlns:dc="http://purl.org/dc/elements/1.1/"/>
                <dc:title xmlns:dc="http://purl.org/dc/elements/1.1/"/>
            </cc:Work>
        </rdf:RDF>
    </metadata>
    <defs id="defs23055" />
    <g transform="matrix(0.26621854,0,0,0.26621854,0.02966877,8.1579985)" >
        <g >
            <g gorn="0.3.0.0" id="g17774" >
                <rect width="12.975" y="25.221001" gorn="0.3.0.0.0" id="rect17776" style="fill:#878787"  height="4.5619998" x="107.157"/>
                <rect width="0.45100001" y="25.221001" gorn="0.3.0.0.1" id="rect17778" style="fill:#2d2d2d"  height="4.5619998" x="107.157"/>
                <rect width="12.975" y="29.257999" gorn="0.3.0.0.2" id="rect17780" style="opacity:0.35"  height="0.52200001" x="107.157"/>
                <path d="m 119.835,26.478 c 0,0.255 -0.275,0.461 -0.617,0.461 l -12.438,0 c -0.34,0 -0.617,-0.188 -0.617,-0.443 l 0,-0.369 c 0,-0.256 0.277,-0.479 0.617,-0.479 l 12.438,0 c 0.342,0 0.617,0.207 0.617,0.461 l 0,0.369 z" gorn="0.3.0.0.3" id="path17782" style="opacity:0.35;fill:#ffffff" />
            </g>
        </g>
    </g>
    <g transform="matrix(0.26621854,0,0,0.26621854,0.02966877,8.1579985)" >
        <g >
            <g gorn="0.4.0.0" id="g17784" >
                <path stroke="#6d6d6d" fill="#6d6d6d" d="m 106.687,7.465 c 0,-1.561 -1.275,-2.834 -2.834,-2.834 l -0.031,0 c -1.561,0 -2.836,-0.93 -2.836,-2.062 0,-1.132 -1.273,-2.061 -2.834,-2.061 l -69.645,0 0,54.701 69.645,0 c 1.561,0 2.834,-0.93 2.834,-2.062 0,-1.132 1.275,-2.061 2.836,-2.061 l 0.031,0 c 1.559,0 2.834,-1.275 2.834,-2.836 l 0,-40.785 0,0 z" gorn="0.4.0.0.0" id="path17786" stroke-width="1" />
            </g>
        </g>
    </g>
    <path d="m 27.790937,20.887237 -0.0077,0 c -0.412906,0 -0.825808,0.161329 -0.825808,0.35833 0,0.196469 -0.261427,0.35833 -0.6738,0.35833 l -17.143942,0 0,1.185472 16.993528,0 c 0.41184,0 0.748606,-0.246518 0.748606,-0.547079 0,-0.300562 0.338099,-0.54708 0.749671,-0.54708 l 0.0082,0 c 0.412373,0 0.74914,-0.338363 0.74914,-0.751801 l 0,-0.548676 c 0.0011,0.27101 -0.185555,0.492504 -0.597928,0.492504 z" gorn="0.5" id="path17788" style="opacity:0.35" />
    <rect width="0.25024542" y="15.170196" gorn="0.6" id="rect17790" style="fill:#878787"  height="0.80957055" x="6.3936229"/>
    <rect width="2.7266102" y="14.83183" gorn="0.7" id="rect17792" style="fill:#e5e500"  height="1.4865643" x="7.3884807"/>
    <g transform="matrix(0.26621854,0,0,0.26621854,0.02966877,8.1579985)" >
        <g >
            <g gorn="0.8.0.0" id="g17794" >
                <rect width="8.2145777" y="18.865999" gorn="0.8.0.0.0" id="rect17796" style="fill:#000000"  height="17.988001" x="19.427422"/>
                <polygon points="35.158,30.653 37.884,30.653 37.884,25.069 35.158,25.069 35.158,0 27.642,0 27.642,26 37.884,26 37.884,29.719 27.642,29.719 27.642,55.721 35.158,55.721 " gorn="0.8.0.0.1" id="polygon17798" style="fill:#f3ff00" />
                <rect width="8.2145777" y="14.610984" gorn="0.8.0.0.2" id="rect17796-9" style="fill:#000000"  height="2.7328925" x="19.426199"/>
                <rect width="8.2145777" y="38.504292" gorn="0.8.0.0.3" id="rect17796-9-6" style="fill:#000000"  height="2.7328925" x="19.392111"/>
            </g>
        </g>
    </g>
    <path d="m 27.110482,15.629421 c 0,3.53272 -0.201792,6.394835 -0.201792,6.394835 l 0,-12.7888708 c 0,0 0.201792,2.8634458 0.201792,6.3940358 z" gorn="0.9" id="path17800" style="opacity:0.5;fill:#686868" />
    <path d="m 26.603336,12.907071 c 0,0.377231 -0.379361,0.682584 -0.84684,0.682584 l -14.780187,0 c -0.467746,0 -0.846841,-0.279264 -0.846841,-0.656761 l 0,-3.4054674 c 0,-0.3774979 0.379095,-0.710271 0.846841,-0.710271 l 14.780187,0 c 0.467479,0 0.84684,0.3061514 0.84684,0.6836494 l 0,3.406266 z" gorn="0.10" id="path17802" style="opacity:0.16000001;fill:#ffffff" />
    <g transform="matrix(0.26621854,0,0,0.26621854,0.02966877,8.1579985)" >
        <g >
            <g gorn="0.11.0.0" id="g17804" style="opacity:0.16000001" >
                <path d="m 105.595,18.178 c 0,0.78 -0.639,1.417 -1.417,1.417 l -0.352,0 c -0.777,0 -1.417,-0.638 -1.417,-1.417 l 0,-10.493 c 0,-0.78 0.64,-1.417 1.417,-1.417 l 0.352,0 c 0.778,0 1.417,0.638 1.417,1.417 l 0,10.493 z" gorn="0.11.0.0.0" id="path17806" style="fill:#ffffff" />
            </g>
        </g>
    </g>
    <g transform="matrix(0.26621854,0,0,0.26621854,0.02966877,8.1579985)" >
        <g >
            <g gorn="0.12.0.0" id="g17808" >
                <path d="m 92.049,24.66 c -1.034,0 -1.876,-0.841 -1.876,-1.875 l 0,-8.422 c 0,-1.035 0.842,-1.877 1.876,-1.877 1.034,0 1.876,0.842 1.876,1.877 l 0,8.422 c 0,1.033 -0.842,1.875 -1.876,1.875 l 0,0 z" gorn="0.12.0.0.0" id="path17810" />
                <path d="m 92.049,12.986 c 0.759,0 1.376,0.618 1.376,1.377 l 0,8.422 c 0,0.76 -0.617,1.375 -1.376,1.375 -0.759,0 -1.376,-0.615 -1.376,-1.375 l 0,-8.422 c 0,-0.76 0.617,-1.377 1.376,-1.377 m 0,-1 c -1.312,0 -2.376,1.064 -2.376,2.377 l 0,8.422 c 0,1.312 1.062,2.375 2.376,2.375 1.312,0 2.376,-1.062 2.376,-2.375 l 0,-8.422 c 0,-1.313 -1.064,-2.377 -2.376,-2.377 l 0,0 z" gorn="0.12.0.0.1" id="path17812" style="fill:#6b6b6b" />
            </g>
        </g>
    </g>
    <g transform="matrix(0.26621854,0,0,0.26621854,0.02966877,8.1579985)" >
        <g >
            <g gorn="0.13.0.0" id="g17814" >
                <path d="m 92.049,43.234 c -1.034,0 -1.876,-0.842 -1.876,-1.876 l 0,-8.421 c 0,-1.035 0.842,-1.877 1.876,-1.877 1.034,0 1.876,0.842 1.876,1.877 l 0,8.421 c 0,1.034 -0.842,1.876 -1.876,1.876 l 0,0 z" gorn="0.13.0.0.0" id="path17816" />
                <path d="m 92.049,31.56 c 0.759,0 1.376,0.618 1.376,1.377 l 0,8.421 c 0,0.759 -0.617,1.376 -1.376,1.376 -0.759,0 -1.376,-0.617 -1.376,-1.376 l 0,-8.421 c 0,-0.759 0.617,-1.377 1.376,-1.377 m 0,-1 c -1.312,0 -2.376,1.064 -2.376,2.377 l 0,8.421 c 0,1.312 1.062,2.376 2.376,2.376 1.312,0 2.376,-1.062 2.376,-2.376 l 0,-8.421 c 0,-1.312 -1.064,-2.377 -2.376,-2.377 l 0,0 z" gorn="0.13.0.0.1" id="path17818" style="fill:#6b6b6b" />
            </g>
        </g>
    </g>
    <g transform="matrix(0.26621854,0,0,0.26621854,0.02966877,8.1579985)" >
        <g >
            <g gorn="0.14.0.0" id="g17820" >
                <path d="m 92.049,6.086 c -1.034,0 -1.876,-0.843 -1.876,-1.875 l 0,-3.711 3.752,0 0,3.711 c 0,1.034 -0.842,1.875 -1.876,1.875 l 0,0 z" gorn="0.14.0.0.0" id="path17822" />
                <path d="m 93.425,1 0,3.211 c 0,0.758 -0.617,1.375 -1.376,1.375 -0.759,0 -1.376,-0.617 -1.376,-1.375 l 0,-3.211 2.752,0 m 1,-1 -4.752,0 0,4.211 c 0,1.312 1.062,2.375 2.376,2.375 1.312,0 2.376,-1.063 2.376,-2.375 l 0,-4.211 0,0 z" gorn="0.14.0.0.1" id="path17824" style="fill:#6b6b6b" />
            </g>
        </g>
    </g>
    <g transform="matrix(0.26621854,0,0,0.26621854,0.02966877,8.1579985)" >
        <g >
            <g gorn="0.15.0.0" id="g17826" >
                <path d="m 90.173,55.221 0,-3.711 c 0,-1.035 0.842,-1.877 1.876,-1.877 1.034,0 1.876,0.842 1.876,1.877 l 0,3.711 -3.752,0 z" gorn="0.15.0.0.0" id="path17828" />
                <path d="m 92.049,50.133 c 0.759,0 1.376,0.618 1.376,1.377 l 0,3.211 -2.752,0 0,-3.211 c 0,-0.759 0.617,-1.377 1.376,-1.377 m 0,-1 c -1.312,0 -2.376,1.062 -2.376,2.377 l 0,4.211 4.752,0 0,-4.211 c 0,-1.312 -1.064,-2.377 -2.376,-2.377 l 0,0 z" gorn="0.15.0.0.1" id="path17830" style="fill:#6b6b6b" />
            </g>
        </g>
    </g>
    <g transform="matrix(0.26621854,0,0,0.26621854,0.16326047,8.1847165)" >
        <g >
            <g gorn="0.16.0.0" id="wires" >
                <path stroke-opacity="1" stroke="#ff0000" fill="none" d="M 19.089037,44.377086 C 10.815751,44.51851 9.3620059,13.157984 0.8932367,12.904217" gorn="0.16.0.0.0" id="path21208" stroke-width="1.60002637" style="fill-rule:evenodd;stroke-linecap:round;stroke-linejoin:miter;stroke-miterlimit:4;stroke-dasharray:none;" />
                <path stroke-opacity="1" stroke="#000000" fill="none" d="M 19.164038,46.382019 C 8.1329901,46.947713 7.7680455,21.522766 0.82859149,21.153922" gorn="0.16.0.0.1" id="path21210" stroke-width="1.60002637" style="fill-rule:evenodd;stroke-linecap:round;stroke-linejoin:miter;stroke-miterlimit:4;stroke-dasharray:none;" />
                <path stroke-opacity="1" stroke="#ffff00" fill="none" d="M 19.251539,48.32445 C 6.735543,49.243705 4.9372882,29.610209 0.95181651,29.28956" gorn="0.16.0.0.2" id="path21212" stroke-width="1.60002637" style="fill-rule:evenodd;stroke-linecap:round;stroke-linejoin:miter;stroke-miterlimit:4;stroke-dasharray:none;" />
                <path stroke-opacity="1" stroke="#00ff00" fill="none" d="M 19.351174,50.408305 C 4.4309739,51.044711 4.8482535,37.620386 0.9599642,37.46891" gorn="0.16.0.0.3" id="path21214" stroke-width="1.60002637" style="fill-rule:evenodd;stroke-linecap:round;stroke-linejoin:miter;stroke-miterlimit:4;stroke-dasharray:none;" />
                <path stroke-opacity="1" stroke="#0000ff" fill="none" d="M 19.338673,52.429658 C 3.9234908,52.571082 5.6330124,45.890295 0.89531853,45.67816" gorn="0.16.0.0.4" id="path21216" stroke-width="1.60002637" style="fill-rule:evenodd;stroke-linecap:round;stroke-linejoin:miter;stroke-miterlimit:4;stroke-dasharray:none;" />
                <path stroke-opacity="1" stroke="#c8c8c8" fill="none" d="M 19.405463,54.509224 C 5.2630945,54.862783 7.169434,53.619386 0.66602544,53.852484" gorn="0.16.0.0.5" id="path21218" stroke-width="1.60002637" style="fill-rule:evenodd;stroke-linecap:round;stroke-linejoin:miter;stroke-miterlimit:4;stroke-dasharray:none;" />
                <rect width="8.1318626" stroke-opacity="1" stroke="none" fill="#ececec" y="43.387489" gorn="0.16.0.0.6" id="rect19727" stroke-width="0.80001318"  height="12.23315" x="18.942955"/>
            </g>
        </g>
    </g>
    <g transform="matrix(0.26621854,0,0,0.26621854,-5.4295238,8.2144728)" >
        <g >
            <g gorn="0.17.0.0" id="g18012" >
                <rect width="1" y="12.27589" gorn="0.17.0.0.0" id="connector0pin" style="fill:#8c8c8c"  x="21.509718" height="1"/>
                <rect width="1" y="20.476009" gorn="0.17.0.0.1" id="connector1pin" style="fill:#8c8c8c"  x="21.509718" height="1"/>
                <rect width="1" y="28.676128" gorn="0.17.0.0.2" id="connector2pin" style="fill:#8c8c8c"  x="21.509718" height="1"/>
                <rect width="1" y="36.876247" gorn="0.17.0.0.3" id="connector3pin" style="fill:#8c8c8c"  x="21.509718" height="1"/>
                <rect width="1" y="45.076366" gorn="0.17.0.0.4" id="connector4pin" style="fill:#8c8c8c"  x="21.509718" height="1"/>
                <rect width="1" y="53.276485" gorn="0.17.0.0.5" id="connector5pin" style="fill:#8c8c8c"  x="21.509718" height="1"/>
            </g>
        </g>
    </g>
</svg>
